<svg width="171" height="131" viewBox="0 0 171 131" fill="none" xmlns="http://www.w3.org/2000/svg">
<path d="M169.5 45H60.5L65.4242 57.5L86.5 111H149L169.5 45Z" fill="#4166A9"/>
<path d="M86.5 111L77 114.5V122.5L83 129.5H92L96.5 122.5L94 114.5L86.5 111Z" fill="#4166A9"/>
<path d="M159.5 114.5L149 111L142.5 117V124.5L151.5 129.5L159.5 124.5V114.5Z" fill="#4166A9"/>
<path d="M25.5 0.5H0.5V5H23.5L65.4242 57.5L60.5 45L25.5 0.5Z" fill="#4166A9"/>
<path d="M60.5 45L25.5 0.5H0.5V5H23.5L65.4242 57.5M60.5 45H169.5L149 111M60.5 45L65.4242 57.5M149 111H86.5M149 111L159.5 114.5V124.5L151.5 129.5L142.5 124.5V117L149 111ZM86.5 111L77 114.5V122.5L83 129.5H92L96.5 122.5L94 114.5L86.5 111ZM86.5 111L65.4242 57.5" stroke="#1A33B1"/>
</svg>
